<svg width="18" height="18" viewBox="0 0 18 18" fill="none" xmlns="http://www.w3.org/2000/svg">
<path d="M8.97812 0.179845C8.58938 0.185542 8.21881 0.345331 7.94783 0.624104C7.67684 0.902876 7.52762 1.27782 7.53293 1.66656V7.53323H1.66627C1.47192 7.53048 1.27896 7.56639 1.0986 7.63886C0.91825 7.71133 0.754099 7.81893 0.61569 7.9554C0.477281 8.09186 0.367375 8.25447 0.292359 8.43378C0.217342 8.6131 0.178711 8.80553 0.178711 8.9999C0.178711 9.19427 0.217342 9.3867 0.292359 9.56601C0.367375 9.74532 0.477281 9.90793 0.61569 10.0444C0.754099 10.1809 0.91825 10.2885 1.0986 10.3609C1.27896 10.4334 1.47192 10.4693 1.66627 10.4666H7.53293V16.3332C7.53019 16.5276 7.56609 16.7205 7.63856 16.9009C7.71104 17.0812 7.81863 17.2454 7.9551 17.3838C8.09156 17.5222 8.25418 17.6321 8.43349 17.7071C8.6128 17.7822 8.80523 17.8208 8.9996 17.8208C9.19397 17.8208 9.3864 17.7822 9.56571 17.7071C9.74502 17.6321 9.90764 17.5222 10.0441 17.3838C10.1806 17.2454 10.2882 17.0812 10.3606 16.9009C10.4331 16.7205 10.469 16.5276 10.4663 16.3332V10.4666H16.3329C16.5273 10.4693 16.7202 10.4334 16.9006 10.3609C17.0809 10.2885 17.2451 10.1809 17.3835 10.0444C17.5219 9.90793 17.6318 9.74532 17.7068 9.56601C17.7819 9.3867 17.8205 9.19427 17.8205 8.9999C17.8205 8.80553 17.7819 8.6131 17.7068 8.43378C17.6318 8.25447 17.5219 8.09186 17.3835 7.9554C17.2451 7.81893 17.0809 7.71133 16.9006 7.63886C16.7202 7.56639 16.5273 7.53048 16.3329 7.53323H10.4663V1.66656C10.4689 1.47046 10.4323 1.27581 10.3584 1.09413C10.2846 0.912447 10.175 0.747419 10.0363 0.608808C9.89754 0.470197 9.73241 0.360816 9.55065 0.287136C9.3689 0.213456 9.17422 0.176973 8.97812 0.179845Z" fill="white"/>
</svg>
