<svg width="60" height="60" viewBox="0 0 60 60" fill="none" xmlns="http://www.w3.org/2000/svg">
<circle cx="30" cy="30" r="29.5" stroke="#312C27"/>
<path d="M23 32.584H23.75C23.7499 32.4381 23.7073 32.2955 23.6274 32.1734C23.5475 32.0514 23.4337 31.9553 23.3 31.897L23 32.584ZM37 32.584L36.7 31.897C36.5663 31.9553 36.4525 32.0514 36.3726 32.1734C36.2927 32.2955 36.2501 32.4381 36.25 32.584H37ZM33.75 25C33.75 25.1989 33.829 25.3897 33.9697 25.5303C34.1103 25.671 34.3011 25.75 34.5 25.75C34.6989 25.75 34.8897 25.671 35.0303 25.5303C35.171 25.3897 35.25 25.1989 35.25 25H33.75ZM24.75 25C24.75 25.1989 24.829 25.3897 24.9697 25.5303C25.1103 25.671 25.3011 25.75 25.5 25.75C25.6989 25.75 25.8897 25.671 26.0303 25.5303C26.171 25.3897 26.25 25.1989 26.25 25H24.75ZM25 22.25C23.475 22.25 22.0125 22.8558 20.9341 23.9341C19.8558 25.0125 19.25 26.475 19.25 28H20.75C20.75 26.8728 21.1978 25.7918 21.9948 24.9948C22.7918 24.1978 23.8728 23.75 25 23.75V22.25ZM35 23.75C36.1272 23.75 37.2082 24.1978 38.0052 24.9948C38.8022 25.7918 39.25 26.8728 39.25 28H40.75C40.75 26.475 40.1442 25.0125 39.0659 23.9341C37.9875 22.8558 36.525 22.25 35 22.25V23.75ZM33 39.25H27V40.75H33V39.25ZM27 39.25C26.036 39.25 25.388 39.248 24.905 39.183C24.444 39.121 24.246 39.014 24.116 38.883L23.056 39.945C23.511 40.4 24.078 40.585 24.706 40.67C25.312 40.752 26.078 40.75 27 40.75V39.25ZM22.25 36C22.25 36.922 22.248 37.688 22.33 38.294C22.414 38.922 22.6 39.489 23.055 39.944L24.116 38.884C23.986 38.754 23.879 38.556 23.816 38.094C23.752 37.612 23.75 36.964 23.75 36H22.25ZM36.25 36C36.25 36.964 36.248 37.612 36.183 38.095C36.121 38.556 36.014 38.754 35.883 38.884L36.945 39.944C37.4 39.489 37.585 38.922 37.67 38.294C37.752 37.688 37.75 36.922 37.75 36H36.25ZM33 40.75C33.922 40.75 34.688 40.752 35.294 40.67C35.922 40.586 36.49 40.4 36.945 39.944L35.884 38.884C35.754 39.014 35.556 39.121 35.094 39.184C34.612 39.248 33.964 39.25 33 39.25V40.75ZM25 23.75C25.214 23.75 25.423 23.766 25.628 23.796L25.847 22.312C25.5666 22.2706 25.2835 22.2499 25 22.25V23.75ZM30 19.25C28.9028 19.25 27.8331 19.5936 26.9412 20.2327C26.0492 20.8717 25.3799 21.7741 25.027 22.813L26.447 23.295C26.6992 22.5528 27.1774 21.9082 27.8147 21.4518C28.4519 20.9953 29.2161 20.7499 30 20.75V19.25ZM25.027 22.813C24.843 23.3564 24.7494 23.9263 24.75 24.5H26.25C26.25 24.077 26.32 23.672 26.448 23.295L25.027 22.813ZM35 22.25C34.713 22.25 34.43 22.271 34.153 22.312L34.373 23.796C34.5806 23.7654 34.7902 23.75 35 23.75V22.25ZM30 20.75C30.7837 20.7501 31.5477 20.9956 32.1847 21.4521C32.8218 21.9085 33.2999 22.553 33.552 23.295L34.972 22.813C34.6192 21.7742 33.95 20.872 33.0582 20.233C32.1665 19.594 31.0971 19.2502 30 19.25V20.75ZM33.552 23.295C33.68 23.672 33.75 24.077 33.75 24.5H35.25C35.25 23.911 35.152 23.344 34.972 22.813L33.553 23.295H33.552ZM23.75 36V32.584H22.25V36H23.75ZM23.3 31.897C22.5419 31.566 21.8968 31.021 21.4439 30.3288C20.9909 29.6366 20.7498 28.8272 20.75 28H19.25C19.2499 29.119 19.5763 30.2137 20.1891 31.1499C20.8019 32.0862 21.6745 32.8233 22.7 33.271L23.3 31.897ZM36.25 32.584V36H37.75V32.584H36.25ZM39.25 28C39.2502 28.8272 39.0091 29.6366 38.5561 30.3288C38.1032 31.021 37.4581 31.566 36.7 31.897L37.3 33.271C38.3255 32.8233 39.1981 32.0862 39.8109 31.1499C40.4237 30.2137 40.7501 29.119 40.75 28H39.25ZM33.75 24.5V25H35.25V24.5H33.75ZM24.75 24.5V25H26.25V24.5H24.75Z" fill="#1F1711"/>
<path opacity="0.7" d="M30 27.9951L29.481 28.5371C29.6206 28.6709 29.8066 28.7456 30 28.7456C30.1934 28.7456 30.3794 28.6709 30.519 28.5371L30 27.9951ZM29.486 31.0641C29.069 30.7581 28.608 30.3741 28.259 29.9721C27.891 29.5461 27.75 29.2151 27.75 29.0001H26.25C26.25 29.7701 26.691 30.4511 27.125 30.9531C27.578 31.4771 28.139 31.9361 28.599 32.2731L29.486 31.0641ZM27.75 29.0001C27.75 28.4241 28.013 28.1741 28.242 28.0931C28.492 28.0051 28.956 28.0331 29.482 28.5371L30.519 27.4531C29.694 26.6631 28.658 26.3581 27.746 26.6781C26.812 27.0051 26.25 27.9031 26.25 29.0001H27.75ZM31.4 32.2741C31.86 31.9361 32.422 31.4771 32.875 30.9531C33.309 30.4511 33.75 29.7701 33.75 29.0001H32.25C32.25 29.2151 32.109 29.5461 31.74 29.9721C31.392 30.3751 30.931 30.7581 30.514 31.0641L31.401 32.2741H31.4ZM33.75 29.0001C33.75 27.9031 33.187 27.0051 32.254 26.6781C31.342 26.3581 30.306 26.6641 29.481 27.4531L30.519 28.5371C31.044 28.0331 31.508 28.0051 31.759 28.0931C31.987 28.1731 32.25 28.4241 32.25 29.0001H33.75ZM28.6 32.2741C28.968 32.5441 29.382 32.8811 30 32.8811V31.3811C29.976 31.3811 29.96 31.3811 29.906 31.3521C29.76 31.2651 29.6197 31.1689 29.486 31.0641L28.599 32.2741H28.6ZM30.514 31.0641C30.3803 31.1689 30.24 31.2651 30.094 31.3521C30.04 31.3811 30.024 31.3811 30 31.3811V32.8811C30.618 32.8811 31.032 32.5441 31.4 32.2741L30.514 31.0641Z" fill="#1F1711"/>
<path opacity="0.7" d="M23 36H37" stroke="#1F1711" stroke-width="1.5" stroke-linecap="round" stroke-linejoin="round"/>
</svg>
