<svg width="347" height="72" viewBox="0 0 347 72" fill="none" xmlns="http://www.w3.org/2000/svg">
<path d="M57.0227 1.18182V71H47.3409L11.8523 19.7955H11.2045V71H0.670455V1.18182H10.4205L45.9432 52.4545H46.5909V1.18182H57.0227Z" fill="#7D1B68"/>
<path d="M158.443 36.0909C158.443 43.5455 157.08 49.9545 154.352 55.3182C151.625 60.6591 147.886 64.7727 143.136 67.6591C138.409 70.5227 133.034 71.9545 127.011 71.9545C120.966 71.9545 115.568 70.5227 110.818 67.6591C106.091 64.7727 102.364 60.6477 99.6364 55.2841C96.9091 49.9205 95.5455 43.5227 95.5455 36.0909C95.5455 28.6364 96.9091 22.2386 99.6364 16.8977C102.364 11.5341 106.091 7.42045 110.818 4.55682C115.568 1.67045 120.966 0.22727 127.011 0.22727C133.034 0.22727 138.409 1.67045 143.136 4.55682C147.886 7.42045 151.625 11.5341 154.352 16.8977C157.08 22.2386 158.443 28.6364 158.443 36.0909ZM148.011 36.0909C148.011 30.4091 147.091 25.625 145.25 21.7386C143.432 17.8295 140.932 14.875 137.75 12.875C134.591 10.8523 131.011 9.84091 127.011 9.84091C122.989 9.84091 119.398 10.8523 116.239 12.875C113.08 14.875 110.58 17.8295 108.739 21.7386C106.92 25.625 106.011 30.4091 106.011 36.0909C106.011 41.7727 106.92 46.5682 108.739 50.4773C110.58 54.3636 113.08 57.3182 116.239 59.3409C119.398 61.3409 122.989 62.3409 127.011 62.3409C131.011 62.3409 134.591 61.3409 137.75 59.3409C140.932 57.3182 143.432 54.3636 145.25 50.4773C147.091 46.5682 148.011 41.7727 148.011 36.0909ZM203.085 1.18182L222.517 58.0455H223.301L242.733 1.18182H254.119L228.994 71H216.824L191.699 1.18182H203.085ZM295.506 71H284.324L309.449 1.18182H321.619L346.744 71H335.562L315.824 13.8636H315.278L295.506 71ZM297.381 43.6591H333.653V52.5227H297.381V43.6591Z" fill="white"/>
</svg>
