<svg width="40" height="40" viewBox="0 0 40 40" fill="none" xmlns="http://www.w3.org/2000/svg">
<path d="M36.0002 28.25C35.6668 30 34.2502 31.3333 32.5002 31.5833C29.7502 32 25.1668 32.5 20.0002 32.5C14.9168 32.5 10.3335 32 7.50016 31.5833C5.75016 31.3333 4.3335 30 4.00016 28.25C3.66683 26.3333 3.3335 23.5 3.3335 20C3.3335 16.5 3.66683 13.6667 4.00016 11.75C4.3335 10 5.75016 8.66667 7.50016 8.41667C10.2502 8 14.8335 7.5 20.0002 7.5C25.1668 7.5 29.6668 8 32.5002 8.41667C34.2502 8.66667 35.6668 10 36.0002 11.75C36.3335 13.6667 36.7502 16.5 36.7502 20C36.6668 23.5 36.3335 26.3333 36.0002 28.25Z" fill="white"/>
<path d="M16.6665 25.8327V14.166L26.6665 19.9993L16.6665 25.8327Z" fill="#040914"/>
</svg>
