<svg width="204" height="201" viewBox="0 0 204 201" fill="none" xmlns="http://www.w3.org/2000/svg">
<rect width="204" height="201" rx="12" fill="white"/>
<path d="M73.9199 23H86.4002V29.2394H73.9199V23Z" fill="black"/>
<path d="M98.8799 23H105.119V29.2394H117.6V35.48H98.8799V23Z" fill="black"/>
<path d="M123.84 23H130.08V91.6397H123.84V79.1606H117.6V85.4H111.357V79.1606H105.12V72.9201H98.8806V54.2004H92.6401V41.7202H73.9204V35.4808H86.4006V29.2403H92.6401V35.4808H98.8806V41.7202H117.6V47.9607H105.12V66.6804H111.357V60.4399H117.6V72.9201H123.84V54.2004H117.6V47.961H123.84V23Z" fill="black"/>
<path d="M24 23V66.6798H67.6798V23H24ZM61.4399 60.4399H30.24V29.24H61.4399V60.4399Z" fill="black"/>
<path d="M136.319 23V66.6798H179.999V23H136.319ZM173.759 60.4399H142.559V29.24H173.759V60.4399Z" fill="black"/>
<path d="M36.48 35.4785H55.1996V54.1982H36.48V35.4785Z" fill="black"/>
<path d="M148.799 35.4785H167.519V54.1982H148.799V35.4785Z" fill="black"/>
<path d="M73.9199 47.9609H86.4002V60.4401H80.1607V54.2006H73.9202L73.9199 47.9609Z" fill="black"/>
<path d="M73.9202 60.4375H80.1607V66.678H86.4002V60.4375H92.6396V72.9177H98.8801V79.1583H105.12V85.3977H98.8801V91.6371H92.6396V79.158H86.4002V72.9175H73.9199L73.9202 60.4375Z" fill="black"/>
<path d="M55.1997 72.9199H67.6799V79.1593H55.1997V72.9199Z" fill="black"/>
<path d="M148.799 72.9199H155.039V79.1593H148.799V72.9199Z" fill="black"/>
<path d="M161.279 72.9199H167.519V85.4002H179.999V104.12H167.519V91.6396H161.279V72.9199Z" fill="black"/>
<path d="M173.759 72.9199H179.999V79.1593H173.759V72.9199Z" fill="black"/>
<path d="M30.2397 79.1602H42.72V85.3996H30.2397V79.1602Z" fill="black"/>
<path d="M48.96 79.1602H55.1994V85.3996H48.96V79.1602Z" fill="black"/>
<path d="M24 85.4004H30.2394V91.6398H24V85.4004Z" fill="black"/>
<path d="M61.4399 85.4004H67.6794V91.6398H61.4399V85.4004Z" fill="black"/>
<path d="M36.48 91.6406H48.9602V104.121H42.7197V110.361H36.4803V104.121H30.2397V97.8814H36.4803L36.48 91.6406Z" fill="black"/>
<path d="M55.1997 91.6406H61.4391V97.88H55.1997V91.6406Z" fill="black"/>
<path d="M117.6 91.6406H123.839V97.88H117.6V91.6406Z" fill="black"/>
<path d="M61.4399 97.8809H67.6794V104.12H61.4399V97.8809Z" fill="black"/>
<path d="M24 104.119H30.2394V129.08H24V104.119Z" fill="black"/>
<path d="M48.96 104.119H55.1994V110.362H48.96V104.119Z" fill="black"/>
<path d="M42.7202 110.359H48.9596V116.599H42.7202V110.359Z" fill="black"/>
<path d="M61.4399 110.359H67.6794V116.599H61.4399V110.359Z" fill="black"/>
<path d="M73.9199 110.359H80.1605V116.599H86.3999V129.079H80.1605V135.318H73.9199V110.359Z" fill="black"/>
<path d="M142.56 110.359H155.038V116.599H142.56V110.359Z" fill="black"/>
<path d="M167.52 110.359H180V116.599H167.52V110.359Z" fill="black"/>
<path d="M48.96 116.6H55.1994V122.839H48.96V116.6Z" fill="black"/>
<path d="M36.48 122.84H42.7194V129.083H36.48V122.84Z" fill="black"/>
<path d="M55.1997 122.84H67.6799V129.083H55.1997V122.84Z" fill="black"/>
<path d="M86.3999 129.08H92.6393V135.319H86.3999V129.08Z" fill="black"/>
<path d="M180 129.079V122.839H167.52V116.599H155.039V122.839H130.08V116.599H136.319V110.36H142.56V104.119H155.039V110.36H161.28V91.6404L155.039 91.6393V85.3998H148.8V91.6393H142.56V85.3998H148.8V79.1604H142.56V72.921L136.32 72.9199V91.6396H130.08V110.359L117.6 110.36V97.8801H111.357V110.36H105.118V91.6407H98.8785V104.121H92.6391V91.6407H73.9194V97.8801H80.1589V110.36H86.4005V116.6H92.6399V110.36H98.8793L98.8804 116.6H92.641V129.08H98.8804V135.319H105.12V122.839H111.359V135.319H117.6V129.08H123.839V135.319H117.6V141.56H111.357V160.28H98.8801V166.519H111.358L111.357 172.76H98.8802V178.999H130.08V172.76H123.84V166.519H117.6V147.799H123.84V154.039H130.08V160.279H136.319V154.039H155.039V160.279H161.28V154.039H167.519V147.799H161.28V135.319H155.039V129.08L180 129.079ZM123.84 122.839H117.601V116.599H123.84V122.839ZM148.801 147.799H130.081V129.08H148.801V147.799Z" fill="black"/>
<path d="M92.6401 135.318H98.8796V147.799H92.6401V135.318Z" fill="black"/>
<path d="M136.319 135.318H142.562V141.561H136.319V135.318Z" fill="black"/>
<path d="M173.759 135.318H179.999V147.799H173.759V135.318Z" fill="black"/>
<path d="M24 135.318V178.998H67.6798V135.318H24ZM61.4399 172.758H30.24V141.558H61.4399V172.758Z" fill="black"/>
<path d="M73.9199 141.561H86.4002V154.04H92.6396V160.28H86.4002V166.52H80.1607V147.8H73.9202L73.9199 141.561Z" fill="black"/>
<path d="M36.48 147.799H55.1996V166.518H36.48V147.799Z" fill="black"/>
<path d="M98.8799 147.799H105.119V154.038H98.8799V147.799Z" fill="black"/>
<path d="M173.759 154.039H179.999V179H173.759V154.039Z" fill="black"/>
<path d="M123.839 160.279H130.082V166.519H123.839V160.279Z" fill="black"/>
<path d="M136.319 160.279H148.8V166.519H161.28V178.999H155.039V172.76H142.56V178.999H136.32L136.319 160.279Z" fill="black"/>
<path d="M161.279 160.279H167.519V166.519H161.279V160.279Z" fill="black"/>
<path d="M92.6401 166.518H98.8796V172.76H92.6401V166.518Z" fill="black"/>
<path d="M80.1597 172.76H86.3991V178.999H80.1597V172.76Z" fill="black"/>
</svg>
